<svg width="27" height="27" viewBox="0 0 27 27" fill="none" xmlns="http://www.w3.org/2000/svg">
<path d="M27 13.5C27 6.05634 20.9437 -2.64731e-07 13.5 -5.90104e-07C6.05634 -9.15476e-07 1.64262e-06 6.05634 1.31724e-06 13.5C9.91872e-07 20.9437 6.05634 27 13.5 27C20.9437 27 27 20.9437 27 13.5ZM24.9231 13.5C24.9231 19.82 19.82 24.9231 13.5 24.9231C7.17999 24.9231 2.07692 19.82 2.07692 13.5C2.07692 7.17999 7.17999 2.07692 13.5 2.07692C19.82 2.07692 24.9231 7.17999 24.9231 13.5ZM18.595 13.5L17.881 12.7536L11.6502 6.52284L10.1575 8.01562L15.6418 13.5L10.1575 18.9844L11.6502 20.4772L17.881 14.2464L18.595 13.5Z" fill="#005DA6"/>
</svg>
