<?xml version="1.0" encoding="UTF-8"?>
<!DOCTYPE svg PUBLIC "-//W3C//DTD SVG 1.1//EN" "http://www.w3.org/Graphics/SVG/1.1/DTD/svg11.dtd">
<!-- Creator: CorelDRAW Home & Student 2019 -->
<svg xmlns="http://www.w3.org/2000/svg" xml:space="preserve" width="100%" height="100%" version="1.1" shape-rendering="geometricPrecision" text-rendering="geometricPrecision" image-rendering="optimizeQuality" fill-rule="evenodd" clip-rule="evenodd"
viewBox="0 0 7606.67 2729.53"
 xmlns:xlink="http://www.w3.org/1999/xlink">
 <defs>
     <linearGradient id="id0" gradientUnits="userSpaceOnUse" x1="188.9" y1="6428" x2="239.61" y2="6428">
      <stop offset="0" stop-opacity="1" stop-color="#00A060"/>
      <stop offset="0.0117647" stop-opacity="1" stop-color="#00A060"/>
      <stop offset="0.45098" stop-opacity="1" stop-color="#27AB55"/>
      <stop offset="1" stop-opacity="1" stop-color="#54B748"/>
     </linearGradient>
 </defs>
 <g id="Layer_x0020_1">
  <metadata id="CorelCorpID_0Corel-Layer"/>
  <g id="_919703256">
   <g>
    <g>
     <path fill="#69747B" d="M6314.83 2021.18c-59.59,0 -90.01,-36.76 -90.01,-86.21 0,-55.78 40.57,-90.01 90.01,-90.01 55.78,0 90.01,34.23 90.01,87.48 0,53.24 -36.77,88.74 -90.01,88.74l0 0zm0 -158.47c-39.3,0 -69.73,26.62 -69.73,72.26 0,43.1 26.62,68.46 69.73,68.46 43.1,0 71,-26.62 71,-71 0,-45.64 -30.43,-69.73 -71,-69.73l0 0zm-5.07 78.6l-7.6 0 0 35.5 -20.28 0 0 -91.28 35.5 0c17.75,0 34.23,5.07 34.23,25.36 0,13.95 -8.88,22.82 -20.28,26.62l26.62 38.04 -24.09 -0 -24.09 -34.23zm-7.6 -15.21l12.68 0c8.88,0 16.48,-2.53 16.48,-12.68 0,-8.88 -6.34,-12.68 -16.48,-12.68l-12.68 0 0 25.35z"/>
    </g>
    <rect fill="#69747B" x="-2.52" y="818.06" width="143.26" height="1019.29"/>
    <path fill="#69747B" d="M1203.14 1837.35l-517.25 -657.97c-58.32,-71 -86.21,-111.57 -109.03,-152.13l-3.8 0c3.8,34.23 5.07,76.07 5.07,126.78l0 682.06 -143.26 -0 0 -1019.29 145.8 0 496.97 632.62c64.66,82.41 95.08,120.44 115.37,162.28l3.8 0c-1.27,-38.04 -3.8,-82.41 -3.8,-133.12l0 -661.78 143.26 0 0 1019.29 -133.12 0 0 1.27z"/>
    <polygon fill="#69747B" points="2279.48,939.77 1984.09,939.77 1984.09,1837.35 1839.57,1837.35 1839.57,939.77 1535.3,939.77 1535.3,818.06 2323.86,818.06 "/>
    <polygon fill="#69747B" points="2497.54,1837.35 2497.54,818.06 3038.89,818.06 2991.98,939.77 2639.54,939.77 2639.54,1255.44 2989.45,1255.44 2989.45,1375.88 2639.54,1375.88 2639.54,1715.64 3041.42,1715.64 3041.42,1837.35 "/>
    <path fill="#69747B" d="M3770.4 1852.56c-325.82,0 -540.08,-193.97 -540.08,-505.84 0,-318.21 226.93,-537.54 564.16,-537.54 131.85,0 239.61,32.96 300.46,58.32l-1.27 140.73c-71,-35.5 -174.95,-77.33 -295.39,-77.33 -271.3,0 -413.3,168.61 -413.3,408.23 0,238.34 149.6,390.47 401.89,390.47 96.35,0 158.47,-15.21 197.77,-36.76l0 -356.24 143.26 -0.01 0 434.84c-72.26,38.04 -206.64,81.14 -357.51,81.14z"/>
    <path fill="#69747B" d="M4957.04 1837.35c-167.35,-261.16 -258.63,-419.63 -305.54,-419.63l-102.69 0 0 419.63 -143.26 0 0 -1019.29 240.88 0c257.36,0 358.78,125.51 358.78,280.18 0,145.8 -88.74,235.81 -202.85,272.57l0 2.53c38.04,19.01 154.67,202.84 323.28,464l-168.61 0zm-309.34 -897.58l-100.16 0 0 356.25 97.62 0c121.71,0 209.18,-82.41 209.18,-183.83 1.27,-93.82 -53.25,-172.42 -206.65,-172.42z"/>
    <path fill="#69747B" d="M5972.53 1837.35l-107.76 -266.23 -409.49 0 -100.16 266.23 -144.53 0 406.96 -1023.09 91.28 0 413.3 1023.09 -149.6 0zm-267.51 -693.47c-19.02,-50.71 -31.69,-92.55 -40.57,-126.78l-1.26 0c-10.14,36.76 -22.82,76.07 -41.84,125.51l-117.9 309.33 311.87 -0 -110.3 -308.07z"/>
    <polygon fill="#00A05F" points="3068.05,2423.06 3068.05,2207.54 3097.21,2207.54 3097.21,2397.71 3174.54,2397.71 3174.54,2423.06 "/>
    <rect fill="#00A05F" x="3227.79" y="2207.54" width="27.89" height="215.52"/>
    <path fill="#00A05F" d="M3504.16 2423.06l0 -145.8c0,-7.61 0,-12.68 1.27,-22.82l0 0c-3.8,8.88 -7.61,16.48 -11.41,21.55l-51.98 84.94 -16.48 0 -55.78 -84.94c-3.8,-5.07 -7.61,-11.41 -11.41,-21.55l0 0c1.27,10.14 1.27,15.21 1.27,22.82l0 147.06 -27.89 -0 0 -215.52 27.89 0 63.39 96.35c5.07,8.88 8.88,13.95 11.41,20.28l0 -0c2.53,-5.07 5.07,-11.41 11.41,-20.28l59.59 -96.35 27.89 0 0 215.52 -29.16 -0 0 -1.27z"/>
    <rect fill="#00A05F" x="3608.12" y="2207.54" width="27.89" height="215.52"/>
    <polygon fill="#00A05F" points="3838.86,2234.16 3780.54,2234.16 3780.54,2423.06 3751.38,2423.06 3751.38,2234.16 3691.79,2234.16 3691.79,2207.54 3847.73,2207.54 "/>
    <path fill="#00A05F" d="M4143.12 2404.05c-12.68,13.95 -32.96,22.82 -62.12,22.82 -27.89,0 -46.91,-7.61 -58.32,-19.02 -16.48,-16.48 -20.28,-40.57 -20.28,-62.12l0 -136.92 27.89 -0 0 136.92c0,15.21 3.8,31.69 13.95,41.84 7.61,8.88 20.28,13.95 36.76,13.95 19.02,0 32.96,-5.07 40.57,-13.95 8.87,-10.14 12.67,-24.09 12.67,-40.57l0 -138.19 27.89 0 0 140.73c0,20.28 -6.34,40.57 -19.02,54.51z"/>
    <path fill="#00A05F" d="M4390.34 2423.06l-102.69 -138.19c-11.41,-15.21 -17.75,-22.82 -21.55,-31.69l-1.27 0c1.27,7.61 1.27,16.48 1.27,26.62l0 144.53 -27.89 -0 0 -215.52 29.16 0 98.89 133.12c12.68,17.75 19.02,25.36 22.82,34.23l-0 0c0,-7.61 0,-17.75 0,-27.89l0 -139.45 27.89 0 0 215.52 -26.62 -0 0 -1.27z"/>
    <path fill="#00A05F" d="M4581.77 2426.87c-63.39,0 -102.69,-45.64 -102.69,-107.76 0,-62.12 43.1,-111.57 107.76,-111.57 24.09,0 43.1,6.34 54.52,12.68l0 29.16c-16.48,-10.14 -31.69,-16.48 -54.52,-16.48 -46.91,0 -77.33,38.04 -77.33,84.94 0,48.17 27.89,83.67 76.07,83.67 17.75,0 35.5,-5.07 50.71,-13.95l8.88 21.55c-21.55,12.68 -43.1,17.75 -63.39,17.75z"/>
    <polygon fill="#00A05F" points="4703.48,2423.06 4703.48,2207.54 4809.97,2207.54 4801.1,2234.16 4731.37,2234.16 4731.37,2300.09 4801.1,2300.09 4801.1,2325.44 4731.37,2325.44 4731.37,2397.71 4811.24,2397.71 4811.24,2423.06 "/>
    <path fill="#00A05F" d="M4986.2 2423.06c-32.96,-55.78 -51.98,-88.74 -60.85,-88.74l-20.29 0 0 88.74 -27.89 0 0 -215.52 48.18 0c50.71,0 71,26.62 71,59.59 0,30.43 -17.75,49.44 -40.57,57.05l0 1.27c7.61,3.8 30.43,43.1 64.66,97.62l-34.23 0zm-62.12 -188.9l-19.02 0 0 74.8 19.02 0c24.09,0 41.84,-17.75 41.84,-39.3 -0,-19.02 -11.41,-35.5 -41.84,-35.5z"/>
    <polygon fill="#00A05F" points="5190.31,2234.16 5130.72,2234.16 5130.72,2423.06 5102.83,2423.06 5102.83,2234.16 5041.98,2234.16 5041.98,2207.54 5197.91,2207.54 "/>
    <path fill="#00A05F" d="M5356.39 2423.06l-21.55 -55.78 -81.14 0 -20.28 55.78 -29.16 0 81.14 -215.52 17.75 0 82.41 215.52 -29.16 0zm-53.25 -145.8c-3.8,-10.14 -6.34,-19.02 -7.61,-26.62l0 0c-2.53,7.61 -5.07,16.48 -8.88,26.62l-22.82 65.92 62.12 0 -22.82 -65.93z"/>
    <rect fill="#00A05F" x="5438.79" y="2207.54" width="27.89" height="215.52"/>
    <path fill="#00A05F" d="M5693.62 2423.06l-102.69 -138.19c-11.41,-15.21 -17.75,-22.82 -21.55,-31.69l-1.27 0c1.27,7.61 1.27,16.48 1.27,26.62l0 144.53 -27.89 -0 0 -215.52 29.16 0 98.89 133.12c12.68,17.75 19.02,25.36 22.82,34.23l0 0c0,-7.61 0,-17.75 0,-27.89l0 -139.45 27.89 0 0 215.52 -26.62 -0 0 -1.27z"/>
    <polygon fill="#00A05F" points="5915.48,2234.16 5857.16,2234.16 5857.16,2423.06 5828,2423.06 5828,2234.16 5767.15,2234.16 5767.15,2207.54 5924.35,2207.54 "/>
    <path fill="#00A05F" d="M6052.4 2336.85l0 86.21 -27.89 0 0 -86.21 -69.73 -128.05 31.7 0 35.5 67.19c6.34,11.41 12.68,24.09 17.75,34.23l1.27 -0c5.07,-10.14 11.41,-24.09 16.48,-34.23l35.5 -67.19 30.43 0 -71 128.04z"/>
    <rect fill="#00A05F" x="6806.73" y="2430.67" width="341.03" height="300.46"/>
    <rect fill="#00A05F" x="6536.69" y="1908.35" width="515.99" height="456.4"/>
   </g>
   <g id="_919702896">
    <g>
     <rect fill="black" x="6801.66" y="1131.2" width="802.5" height="708.69"/>
    </g>
    <rect fill="url(#id0)" x="6801.66" y="1131.2" width="802.5" height="708.69"/>
   </g>
   <polygon fill="#54B748" points="7379.76,1.61 6259.05,171.49 6399.77,1124.86 7520.48,954.98 "/>
  </g>
 </g>
</svg>
