<svg width="19" height="13" viewBox="0 0 19 13" fill="none" xmlns="http://www.w3.org/2000/svg">
<path d="M1.31326 6.5C1.31326 4.32786 2.19709 2.35797 3.62395 0.931104L2.69285 0C1.02894 1.66325 0 3.96146 0 6.5C0 9.03854 1.02894 11.3368 2.69285 13L3.62395 12.0689C2.19709 10.642 1.31326 8.67214 1.31326 6.5Z" fill="#A1CE5E"/>
<path d="M17.0724 6.5C17.0724 8.67214 16.1886 10.642 14.7617 12.0689L15.6928 13C17.3567 11.3368 18.3857 9.03854 18.3857 6.5C18.3857 3.96146 17.3567 1.66325 15.6928 0L14.7617 0.931104C16.1886 2.35797 17.0724 4.32786 17.0724 6.5Z" fill="#A1CE5E"/>
<path d="M13.3717 2.32129L12.4412 3.25174C13.2738 4.08369 13.7893 5.2328 13.7893 6.5001C13.7893 7.7674 13.2738 8.9165 12.4412 9.74845L13.3717 10.6789C14.4413 9.60925 15.1026 8.13183 15.1026 6.5001C15.1026 4.86836 14.4413 3.39094 13.3717 2.32129Z" fill="#A1CE5E"/>
<path d="M5.01405 10.6789L5.9445 9.74845C5.11189 8.9165 4.59644 7.7674 4.59644 6.5001C4.59644 5.2328 5.11189 4.08369 5.9445 3.25174L5.01405 2.32129C3.9444 3.39094 3.28317 4.86836 3.28317 6.5001C3.28317 8.13183 3.9444 9.60925 5.01405 10.6789Z" fill="#A1CE5E"/>
<path d="M9.19284 9.12647C10.6434 9.12647 11.8194 7.95053 11.8194 6.49994C11.8194 5.04935 10.6434 3.87341 9.19284 3.87341C7.74225 3.87341 6.56631 5.04935 6.56631 6.49994C6.56631 7.95053 7.74225 9.12647 9.19284 9.12647Z" fill="#A1CE5E"/>
</svg>
