<?xml version="1.0" encoding="UTF-8"?>
<!DOCTYPE svg PUBLIC "-//W3C//DTD SVG 1.1//EN" "http://www.w3.org/Graphics/SVG/1.1/DTD/svg11.dtd">
<!-- Creator: CorelDRAW Home & Student 2019 -->
<svg xmlns="http://www.w3.org/2000/svg" xml:space="preserve" width="0.145835in" height="0.166669in" version="1.1" shape-rendering="geometricPrecision" text-rendering="geometricPrecision" image-rendering="optimizeQuality" fill-rule="evenodd" clip-rule="evenodd"
viewBox="0 0 6.2 7.08"
 xmlns:xlink="http://www.w3.org/1999/xlink">
 <g id="Layer_x0020_1">
  <metadata id="CorelCorpID_0Corel-Layer"/>
  <path fill="#6A747C" d="M1.03 0l0 0.71 -0.34 0c-0.38,0 -0.69,0.32 -0.69,0.71l0 4.96c0,0.39 0.31,0.71 0.69,0.71l4.82 0c0.38,0 0.69,-0.32 0.69,-0.71l0 -4.96c0,-0.39 -0.31,-0.71 -0.69,-0.71l-0.34 0 0 -0.71 -0.69 0 0 0.71 -2.75 0 0 -0.71 -0.69 0zm-0.34 2.48l4.82 0 0 3.9 -4.82 0 0 -3.9zm2.75 1.77l0 1.42 1.38 0 0 -1.42 -1.38 0z"/>
 </g>
</svg>
